<?xml version="1.0" standalone="no"?>
<!DOCTYPE svg PUBLIC "-//W3C//DTD SVG 20010904//EN"
 "http://www.w3.org/TR/2001/REC-SVG-20010904/DTD/svg10.dtd">
<svg version="1.0" xmlns="http://www.w3.org/2000/svg"
 width="1280.000000pt" height="968.000000pt" viewBox="0 0 1280.000000 968.000000"
 preserveAspectRatio="xMidYMid meet">
<metadata>
Created by potrace 1.15, written by Peter Selinger 2001-2017
</metadata>
<g transform="translate(0.000000,968.000000) scale(0.100000,-0.100000)"
fill="#000000" stroke="none">
<path d="M5825 8889 c-607 -56 -1202 -230 -1690 -496 -774 -420 -1404 -1062
-1795 -1831 l-70 -137 -733 -5 -734 -5 -49 -30 c-30 -19 -60 -49 -79 -79 l-30
-49 -3 -1612 -2 -1611 32 -54 c22 -37 49 -64 82 -85 l49 -30 719 -3 718 -2 71
-143 c219 -437 480 -800 818 -1138 331 -330 686 -588 1096 -795 462 -233 939
-374 1495 -441 203 -24 687 -24 890 0 297 36 645 111 906 196 727 236 1419
701 1917 1289 235 277 461 624 602 925 l50 106 850 1 c572 0 863 4 889 11 52
14 121 80 143 137 17 45 18 129 18 1632 0 1308 -2 1592 -14 1623 -17 50 -64
103 -115 130 l-41 22 -877 5 -878 5 -64 127 c-550 1083 -1568 1907 -2721 2201
-422 108 -733 148 -1129 146 -127 -1 -271 -5 -321 -10z m535 -9 c408 -21 798
-95 1187 -225 420 -140 767 -321 1153 -602 534 -388 979 -914 1285 -1515 l70
-138 887 -2 886 -3 44 -30 c23 -17 54 -51 68 -75 l25 -45 3 -1590 c2 -1447 1
-1594 -14 -1633 -21 -56 -57 -98 -105 -122 -37 -19 -64 -20 -903 -20 l-865 0
-75 -152 c-270 -551 -681 -1065 -1152 -1442 -648 -518 -1335 -805 -2204 -923
-193 -26 -785 -25 -975 1 -941 129 -1681 461 -2360 1058 -390 344 -754 823
-992 1305 l-74 153 -729 2 -728 3 -43 30 c-24 18 -53 51 -68 80 l-26 50 -3
1585 -2 1585 30 61 c21 43 42 70 72 90 l43 29 740 3 741 2 53 108 c291 587
736 1122 1256 1512 552 414 1112 660 1810 793 220 43 416 63 735 75 19 1 123
-3 230 -8z"/>
<path d="M5960 8694 c-453 -31 -832 -109 -1215 -251 -744 -275 -1383 -756
-1868 -1402 -149 -200 -385 -597 -373 -628 4 -10 20 -13 58 -11 l52 3 34 60
c229 400 408 645 663 909 482 500 1114 876 1764 1051 684 184 1303 196 1984
39 712 -165 1352 -522 1876 -1048 273 -274 504 -583 681 -909 l57 -107 73 0
c40 0 75 4 79 10 10 17 -103 228 -223 415 -622 967 -1653 1641 -2785 1820
-242 38 -662 62 -857 49z m670 -39 c643 -78 1229 -289 1754 -632 585 -382
1045 -884 1380 -1504 25 -47 46 -89 46 -93 0 -3 -29 -6 -64 -6 l-64 0 -48 88
c-268 494 -661 951 -1099 1279 -512 384 -1031 611 -1680 737 -248 48 -397 60
-710 60 -391 0 -602 -26 -995 -124 -1038 -259 -1949 -965 -2475 -1917 l-68
-123 -43 0 c-24 0 -44 3 -44 8 0 4 29 59 64 123 327 595 765 1074 1321 1443
204 136 305 193 507 290 459 220 962 352 1488 390 127 9 600 -3 730 -19z"/>
<path d="M5855 8393 c-22 -2 -111 -12 -198 -23 -1034 -129 -1984 -701 -2594
-1562 -122 -172 -249 -389 -236 -402 4 -3 405 -6 892 -6 l886 0 75 61 c275
221 622 387 970 463 202 44 274 51 515 51 241 0 314 -7 515 -51 351 -77 694
-241 970 -463 l75 -61 867 0 c512 0 869 4 872 9 14 22 -219 386 -356 557 -657
819 -1561 1312 -2600 1419 -134 14 -535 19 -653 8z m640 -24 c474 -42 969
-188 1385 -406 649 -341 1169 -845 1543 -1495 l28 -48 -863 0 -863 0 -70 57
c-448 363 -1075 558 -1651 515 -487 -37 -940 -211 -1321 -508 l-82 -64 -881 2
-881 3 89 145 c166 273 305 452 527 679 220 225 442 407 689 561 700 440 1515
634 2351 559z"/>
<path d="M6047 7832 c-30 -78 -29 -77 -100 -82 -36 -3 -68 -8 -72 -12 -4 -3
14 -21 39 -40 55 -40 61 -58 41 -123 -24 -80 -21 -81 54 -30 28 19 55 35 61
35 6 0 36 -16 67 -36 30 -19 57 -33 60 -31 2 3 -5 31 -15 63 -11 33 -17 65
-15 71 3 7 27 29 54 49 27 20 47 40 43 45 -3 5 -34 9 -68 9 -62 0 -64 1 -79
33 -8 17 -18 42 -21 54 -14 45 -30 44 -49 -5z m86 -110 c48 -3 67 -22 22 -22
-23 0 -25 -4 -25 -44 0 -46 -13 -68 -24 -41 -7 20 -65 20 -72 0 -11 -29 -24
-15 -24 27 0 24 -7 49 -17 60 -15 17 -14 18 21 18 24 0 38 5 41 15 15 48 18
50 24 20 6 -28 10 -30 54 -33z"/>
<path d="M4060 7150 c-26 -69 -32 -75 -79 -71 -39 2 -91 -7 -91 -17 0 -4 16
-18 36 -32 59 -40 67 -58 49 -116 -26 -87 -21 -91 54 -39 28 19 54 35 58 35 5
0 32 -16 61 -36 30 -20 56 -33 59 -30 3 3 -2 33 -11 67 -20 70 -18 74 56 125
l40 28 -28 8 c-16 5 -46 6 -66 3 -44 -6 -63 9 -78 63 -6 20 -16 45 -24 55 -12
16 -16 11 -36 -43z m83 -98 c49 -3 64 -18 25 -24 -20 -3 -23 -10 -26 -50 -3
-48 -14 -62 -26 -33 -3 8 -17 15 -31 15 -14 0 -28 -7 -31 -15 -12 -30 -24 -14
-24 30 0 31 -5 47 -15 51 -27 11 -16 24 20 24 27 0 35 4 35 18 0 29 14 36 20
10 5 -19 13 -23 53 -26z"/>
<path d="M8090 7157 c0 -13 -18 -57 -39 -97 -6 -11 -28 -16 -75 -18 -36 -2
-66 -7 -66 -11 0 -5 17 -21 38 -37 57 -44 60 -50 46 -105 -7 -27 -16 -54 -19
-59 -3 -6 -3 -14 0 -20 4 -6 30 6 63 27 31 20 62 36 67 36 6 0 36 -16 68 -37
64 -41 69 -36 42 39 -22 61 -19 72 34 112 28 21 50 41 50 45 1 4 -29 8 -65 10
-71 3 -70 2 -108 91 -15 36 -36 50 -36 24z m73 -135 c51 -3 62 -16 22 -26 -22
-6 -25 -12 -25 -51 0 -25 -4 -45 -10 -45 -5 0 -10 5 -10 10 0 6 -15 10 -34 10
-19 0 -38 -4 -41 -10 -14 -23 -25 -7 -25 34 0 25 -4 48 -10 51 -21 13 -9 25
25 25 27 0 35 4 35 18 0 29 14 36 20 10 5 -19 13 -23 53 -26z"/>
<path d="M5885 6875 c-281 -37 -568 -129 -805 -257 -112 -60 -301 -189 -297
-202 5 -14 2746 -21 2760 -7 12 12 -11 32 -126 108 -237 157 -537 279 -817
333 -206 40 -515 51 -715 25z m540 -16 c139 -14 318 -53 460 -100 155 -52 390
-167 530 -261 l110 -73 -677 -3 c-372 -1 -984 -1 -1360 0 l-683 3 110 74 c131
88 370 206 515 255 324 109 635 142 995 105z"/>
<path d="M823 6328 c-36 -9 -87 -63 -102 -107 -15 -47 -16 -3127 0 -3168 15
-42 68 -92 109 -103 23 -6 1941 -10 5490 -10 l5456 0 44 23 c30 14 53 36 67
62 l23 40 0 1575 0 1575 -23 39 c-12 22 -36 48 -52 57 -28 17 -317 18 -5506
21 -3012 2 -5490 0 -5506 -4z m10998 -30 c75 -42 69 93 69 -1664 l0 -1578 -22
-33 c-13 -18 -37 -40 -55 -48 -27 -13 -652 -15 -5505 -15 -5444 0 -5473 0
-5506 20 -18 11 -41 34 -52 52 -20 33 -20 54 -20 1608 0 1554 0 1575 20 1608
11 18 34 41 52 52 33 20 62 20 5507 20 l5473 0 39 -22z"/>
<path d="M947 6226 c-56 -20 -103 -60 -126 -109 l-21 -44 2 -1446 3 -1445 30
-44 c20 -28 49 -52 84 -70 l55 -28 5320 0 c3822 0 5332 3 5361 11 55 15 127
91 144 150 9 34 11 369 9 1459 l-3 1415 -22 42 c-27 51 -82 96 -132 112 -61
18 -10653 15 -10704 -3z m10734 -29 c24 -13 58 -43 74 -66 l30 -43 3 -1426 c2
-994 0 -1438 -8 -1464 -14 -48 -53 -94 -101 -118 -38 -20 -99 -20 -5373 -20
-3631 0 -5343 3 -5362 10 -51 20 -87 53 -110 105 l-24 52 2 1424 c3 1363 4
1425 21 1458 23 42 63 80 102 97 25 11 949 13 5366 14 l5336 0 44 -23z"/>
<path d="M2475 2870 c-7 -11 81 -188 156 -316 406 -690 996 -1241 1709 -1599
1141 -572 2508 -572 3650 0 648 325 1188 803 1585 1404 154 234 295 495 277
513 -5 5 -46 8 -91 6 l-82 -3 -46 -85 c-111 -209 -266 -442 -429 -648 -104
-131 -454 -478 -584 -580 -263 -204 -477 -341 -735 -467 -272 -133 -492 -212
-785 -283 -256 -63 -427 -91 -683 -112 -606 -49 -1321 79 -1902 342 -503 227
-974 577 -1343 998 -188 214 -416 549 -536 788 l-26 52 -65 0 c-35 0 -66 -4
-70 -10z m185 -121 c187 -341 415 -645 685 -914 504 -504 1127 -860 1801
-1029 384 -97 556 -118 959 -122 454 -4 701 28 1146 150 789 216 1548 739
2055 1416 96 128 219 314 284 430 29 52 64 114 77 138 l24 42 74 0 c41 0 75
-3 75 -6 0 -14 -128 -246 -202 -368 -518 -848 -1339 -1482 -2293 -1771 -394
-119 -737 -168 -1180 -169 -389 0 -642 30 -1000 120 -1008 251 -1901 902
-2456 1791 -63 101 -219 382 -219 396 0 4 24 7 54 7 l55 0 61 -111z"/>
<path d="M2824 2865 c-14 -36 223 -404 403 -622 991 -1208 2619 -1678 4108
-1188 313 103 644 265 925 456 285 193 617 498 824 759 173 218 395 563 382
595 -5 13 -403 15 -3321 15 -2903 0 -3316 -2 -3321 -15z m6626 -12 c0 -14 -78
-145 -165 -278 -553 -844 -1426 -1432 -2408 -1624 -410 -80 -843 -92 -1262
-35 -1141 157 -2171 860 -2743 1872 l-41 72 3310 0 c1820 0 3309 -3 3309 -7z"/>
<path d="M4610 2798 c139 -122 330 -245 525 -339 226 -109 497 -187 760 -220
128 -16 412 -16 540 0 455 56 875 232 1229 514 l90 72 -90 3 -91 3 -124 -84
c-290 -195 -566 -308 -904 -368 -113 -21 -162 -24 -380 -24 -218 0 -267 3
-380 24 -338 60 -614 173 -903 368 l-124 83 -91 0 -92 -1 35 -31z m252 -58
c141 -100 411 -236 577 -291 484 -160 1010 -155 1491 14 159 56 403 182 539
278 l114 80 66 -3 66 -3 -80 -64 c-316 -253 -705 -421 -1135 -487 -160 -25
-510 -25 -670 0 -417 64 -786 219 -1110 466 -114 87 -116 90 -37 90 l65 0 114
-80z"/>
<path d="M4175 2504 c-4 -10 -11 -28 -16 -39 -5 -11 -13 -32 -19 -47 -9 -26
-13 -28 -72 -28 -88 0 -98 -10 -48 -45 64 -44 70 -58 55 -113 -7 -26 -16 -55
-20 -64 -11 -27 10 -22 68 17 28 19 56 35 62 35 6 0 34 -16 63 -36 30 -20 56
-33 60 -30 3 4 1 21 -5 39 -25 73 -25 94 -1 117 13 12 38 31 56 42 44 27 28
38 -54 38 -55 0 -62 2 -72 25 -7 14 -12 30 -12 35 0 5 -9 24 -20 42 -17 28
-20 30 -25 12z m17 -116 c3 -20 10 -23 51 -26 49 -3 64 -18 25 -24 -20 -3 -23
-10 -26 -50 -3 -48 -14 -62 -26 -33 -7 20 -62 20 -70 -1 -11 -28 -26 -4 -26
42 0 24 -4 44 -10 44 -5 0 -10 5 -10 10 0 6 16 10 35 10 31 0 35 3 35 25 0 31
17 33 22 3z"/>
<path d="M8066 2378 c-9 -24 -21 -53 -26 -65 -9 -21 -17 -23 -74 -23 -36 0
-67 -4 -71 -9 -3 -6 15 -25 39 -43 25 -18 48 -39 51 -47 3 -7 -2 -40 -11 -73
-9 -32 -14 -61 -11 -64 2 -3 30 11 60 30 31 20 61 36 66 36 6 0 35 -16 65 -35
29 -19 56 -32 59 -29 2 3 -4 32 -14 66 l-19 61 22 24 c13 13 37 33 55 44 18
12 31 25 27 30 -3 5 -34 9 -70 9 l-65 0 -29 65 c-16 36 -31 65 -33 65 -2 0
-11 -19 -21 -42z m31 -74 c-3 -4 -2 -15 4 -25 7 -14 21 -19 49 -19 42 0 55
-16 18 -22 -20 -3 -23 -9 -23 -46 0 -27 -4 -42 -12 -42 -7 0 -13 5 -13 10 0 6
-16 10 -35 10 -19 0 -35 -4 -35 -10 0 -5 -4 -10 -10 -10 -5 0 -10 18 -10 40 0
27 -5 43 -15 46 -25 10 -17 23 18 26 24 2 33 8 35 26 2 12 10 22 19 22 9 0 13
-3 10 -6z"/>
<path d="M6097 1652 c-30 -78 -29 -77 -100 -82 -36 -3 -68 -8 -72 -12 -4 -3
14 -21 39 -40 25 -18 48 -40 51 -48 3 -9 -2 -42 -10 -73 -8 -32 -15 -60 -15
-62 0 -12 22 -2 69 30 28 19 55 35 61 35 5 0 35 -16 66 -36 30 -20 58 -34 60
-31 3 3 -4 31 -14 63 -11 33 -17 65 -15 71 3 7 27 29 54 49 27 20 47 40 43 45
-3 5 -34 9 -69 9 -61 0 -65 1 -80 30 -8 16 -15 35 -15 42 0 7 -8 23 -18 35
l-17 23 -18 -48z m33 -87 c0 -23 3 -25 50 -25 28 0 50 -4 50 -10 0 -5 -11 -10
-25 -10 -23 0 -25 -4 -25 -44 0 -46 -15 -70 -26 -42 -8 21 -63 21 -70 1 -12
-29 -24 -14 -24 29 0 28 -6 48 -17 57 -14 12 -12 15 23 19 31 4 40 10 42 28 5
30 22 28 22 -3z"/>
</g>
</svg>
